<?xml version="1.0" encoding="UTF-8" standalone="no"?>
<svg
   xmlns:dc="http://purl.org/dc/elements/1.1/"
   xmlns:cc="http://creativecommons.org/ns#"
   xmlns:rdf="http://www.w3.org/1999/02/22-rdf-syntax-ns#"
   xmlns:svg="http://www.w3.org/2000/svg"
   xmlns="http://www.w3.org/2000/svg"
   xmlns:sodipodi="http://sodipodi.sourceforge.net/DTD/sodipodi-0.dtd"
   xmlns:inkscape="http://www.inkscape.org/namespaces/inkscape"
   version="1.0"
   width="16"
   height="16"
   id="svg3197"
   viewBox="0 0 16 16"
   sodipodi:docname="notification-disabled-symbolic.svg"
   inkscape:version="0.92.1 r15371">
  <sodipodi:namedview
     pagecolor="#ffffff"
     bordercolor="#666666"
     borderopacity="1"
     objecttolerance="10"
     gridtolerance="10"
     guidetolerance="10"
     inkscape:pageopacity="0"
     inkscape:pageshadow="2"
     inkscape:window-width="1338"
     inkscape:window-height="839"
     id="namedview6"
     showgrid="true"
     inkscape:zoom="27.812867"
     inkscape:cx="12.20339"
     inkscape:cy="6.2472669"
     inkscape:window-x="0"
     inkscape:window-y="25"
     inkscape:window-maximized="0"
     inkscape:current-layer="svg3197">
    <inkscape:grid
       type="xygrid"
       id="grid4483" />
  </sodipodi:namedview>
  <metadata
     id="metadata12">
    <rdf:RDF>
      <cc:Work
         rdf:about="">
        <dc:format>image/svg+xml</dc:format>
        <dc:type
           rdf:resource="http://purl.org/dc/dcmitype/StillImage" />
        <dc:title></dc:title>
      </cc:Work>
    </rdf:RDF>
  </metadata>
  <defs
     id="defs3199" />
  <path
     style="color:#bebebe;clip-rule:nonzero;display:inline;overflow:visible;visibility:visible;opacity:0.4;isolation:auto;mix-blend-mode:normal;color-interpolation:sRGB;color-interpolation-filters:linearRGB;solid-color:#000000;solid-opacity:1;fill:#bebebe;fill-opacity:1;fill-rule:nonzero;stroke:none;stroke-width:1.82310748;stroke-linecap:butt;stroke-linejoin:miter;stroke-miterlimit:4;stroke-dasharray:none;stroke-dashoffset:0;stroke-opacity:1;marker:none;color-rendering:auto;image-rendering:auto;shape-rendering:auto;text-rendering:auto;enable-background:accumulate"
     d="M 2.3813797,0.76686522 1.4419265,1.7082715 14.984903,15.251242 15.924356,14.309835 14.006387,12.391867 c 0.0069,-0.04087 0.02344,-0.07807 0.02344,-0.121094 0,-0.12171 -0.03491,-0.232546 -0.08594,-0.333984 -0.01437,-0.02865 -0.03495,-0.04979 -0.05273,-0.07617 -0.04554,-0.06784 -0.09739,-0.126199 -0.162109,-0.175782 -0.01552,-0.01193 -0.02261,-0.03226 -0.03906,-0.04297 C 12.030339,11.02092 12.029825,6.0207715 12.029825,6.0207715 12.028025,4.1982093 10.794514,2.486177 9.0298174,2.0305371 v -0.00977 c 0,-0.5522847 -0.4477152,-1.0000001 -1.0000002,-1.0000001 -0.552285,0 -1,0.4477154 -1,1.0000001 v 0.00977 C 6.2077292,2.2427949 5.5100198,2.7337338 4.9907547,3.3762403 Z M 4.0610672,5.6399121 c -0.012102,0.1268798 -0.031127,0.2524824 -0.03125,0.3808594 0,0 -5.246e-4,5.0001485 -1.6601562,5.6210955 -0.016454,0.01071 -0.023543,0.03104 -0.039063,0.04297 -0.064724,0.04958 -0.1165691,0.107944 -0.1621093,0.175782 -0.017784,0.02638 -0.038367,0.04753 -0.052734,0.07617 -0.051032,0.101438 -0.085937,0.212274 -0.085937,0.333984 0,0.4155 0.3345,0.75 0.75,0.75 h 8.6621163 z m 2.035156,8.3808609 a 2,2 0 0 0 1.933594,1.5 2,2 0 0 0 1.9355472,-1.5 z"
     id="path3347"
     inkscape:connector-curvature="0" />
</svg>
