<?xml version="1.0" encoding="UTF-8" standalone="no"?>
<!-- Created with Inkscape (http://www.inkscape.org/) -->

<svg
   xmlns:osb="http://www.openswatchbook.org/uri/2009/osb"
   xmlns:dc="http://purl.org/dc/elements/1.1/"
   xmlns:cc="http://creativecommons.org/ns#"
   xmlns:rdf="http://www.w3.org/1999/02/22-rdf-syntax-ns#"
   xmlns:svg="http://www.w3.org/2000/svg"
   xmlns="http://www.w3.org/2000/svg"
   xmlns:sodipodi="http://sodipodi.sourceforge.net/DTD/sodipodi-0.dtd"
   xmlns:inkscape="http://www.inkscape.org/namespaces/inkscape"
   width="4.5155554mm"
   height="4.5155554mm"
   viewBox="0 0 15.999999 15.999999"
   id="svg2"
   version="1.1"
   inkscape:version="0.91 r13725"
   sodipodi:docname="notification-alert-symbolic.svg">
  <defs
     id="defs4">
    <linearGradient
       osb:paint="solid"
       id="linearGradient5606">
      <stop
         style="stop-color:#000000;stop-opacity:1;"
         offset="0"
         id="stop5608" />
    </linearGradient>
  </defs>
  <sodipodi:namedview
     id="base"
     pagecolor="#000000"
     bordercolor="#666666"
     borderopacity="1.0"
     inkscape:pageopacity="0"
     inkscape:pageshadow="2"
     inkscape:zoom="32"
     inkscape:cx="8.2634311"
     inkscape:cy="8.4717202"
     inkscape:document-units="px"
     inkscape:current-layer="layer1"
     showgrid="true"
     fit-margin-top="0"
     fit-margin-left="0"
     fit-margin-right="0"
     fit-margin-bottom="0"
     inkscape:window-width="1920"
     inkscape:window-height="1025"
     inkscape:window-x="0"
     inkscape:window-y="27"
     inkscape:window-maximized="1"
     inkscape:snap-bbox="true"
     inkscape:bbox-nodes="true"
     inkscape:bbox-paths="true"
     inkscape:snap-bbox-edge-midpoints="true"
     showborder="true"
     inkscape:snap-global="true">
    <inkscape:grid
       type="xygrid"
       id="grid4913"
       originx="0"
       originy="-2.2107222e-05" />
  </sodipodi:namedview>
  <metadata
     id="metadata7">
    <rdf:RDF>
      <cc:Work
         rdf:about="">
        <dc:format>image/svg+xml</dc:format>
        <dc:type
           rdf:resource="http://purl.org/dc/dcmitype/StillImage" />
        <dc:title></dc:title>
      </cc:Work>
    </rdf:RDF>
  </metadata>
  <g
     inkscape:label="Layer 1"
     inkscape:groupmode="layer"
     id="layer1"
     transform="translate(0,-1036.3622)">
    <path
       style="fill:#bebebe;fill-opacity:1;fill-rule:nonzero;stroke:none"
       d="m 8,1038.3622 c -0.6073607,2e-4 -1.0996094,0.3482 -1.0996094,0.9004 -1.112e-4,0.022 5.402e-4,0.043 0.00195,0.064 -0.4164526,0.088 -0.9805804,0.2324 -1.2558562,0.4844 -0.4088908,0.3744 -0.7381615,0.4235 -1.2363282,1.666 -0.3115063,0.7771 -0.6864888,4.4845 -0.9296874,5.6368 -0.20447,0.969 -0.431221,1.1967 -0.5019532,1.248 l -0.4785156,0 c -0.277,0 -0.5,0.223 -0.5,0.5 0,0.277 0.223,0.5 0.5,0.5 l 11,0 c 0.277,0 0.5,-0.223 0.5,-0.5 0,-0.277 -0.223,-0.5 -0.5,-0.5 l -0.478516,0 c -0.07073,-0.051 -0.297477,-0.279 -0.501953,-1.248 -0.243193,-1.1523 -0.618176,-4.8597 -0.929687,-5.6368 -0.498162,-1.2425 -0.827437,-1.2916 -1.236328,-1.666 -0.275818,-0.2525 -0.8415863,-0.3963 -1.2578129,-0.4844 0.00206,-0.021 0.00337,-0.043 0.00391,-0.064 -3.7e-6,-0.5522 -0.4922524,-0.9002 -1.0996131,-0.9004 z m -1.5,12 c 0,0.5523 0.6715729,1 1.5,1 0.8284271,0 1.5,-0.4477 1.5,-1 z"
       id="rect2994"
       inkscape:connector-curvature="0"
       sodipodi:nodetypes="cccscccsssssscccsccccscc" />
  </g>
</svg>
