<svg height="16" width="16" xmlns="http://www.w3.org/2000/svg" enable-background="new"><title>Solus Symbolic Icon Theme</title><defs><filter id="a" color-interpolation-filters="sRGB"><feBlend in2="BackgroundImage" mode="darken"/></filter></defs><g color="#000" font-weight="400" font-family="sans-serif" white-space="normal" fill="#4f555d"><path d="M8 2.007c-3.302 0-6 2.697-6 5.998s2.698 5.998 6 5.998c3.301 0 6-2.697 6-5.998 0-3.3-2.699-5.998-6-5.998zm0 2c2.22 0 4 1.779 4 3.998a3.984 3.984 0 0 1-4 3.998c-2.222 0-4-1.778-4-3.998a3.984 3.984 0 0 1 4-3.998z" style="line-height:normal;font-variant-ligatures:normal;font-variant-position:normal;font-variant-caps:normal;font-variant-numeric:normal;font-variant-alternates:normal;font-feature-settings:normal;text-indent:0;text-align:start;text-decoration-line:none;text-decoration-style:solid;text-decoration-color:#000;text-transform:none;text-orientation:mixed;shape-padding:0;isolation:auto;mix-blend-mode:normal" overflow="visible" enable-background="accumulate"/><path d="M4 9.003a1 1 0 1 0 0 2h8a1 1 0 1 0 0-2z" style="line-height:normal;font-variant-ligatures:normal;font-variant-position:normal;font-variant-caps:normal;font-variant-numeric:normal;font-variant-alternates:normal;font-feature-settings:normal;text-indent:0;text-align:start;text-decoration-line:none;text-decoration-style:solid;text-decoration-color:#000;text-transform:none;text-orientation:mixed;shape-padding:0;isolation:auto;mix-blend-mode:normal" overflow="visible" fill-rule="evenodd" enable-background="accumulate"/></g></svg>