<svg height="16" width="16" xmlns="http://www.w3.org/2000/svg" enable-background="new"><title>Solus Symbolic Icon Theme</title><defs><filter id="a" color-interpolation-filters="sRGB"><feBlend in2="BackgroundImage" mode="darken"/></filter></defs><g fill="#4f555d"><path d="M7 6.003l-4-4v4z" fill-rule="evenodd"/><path d="M8.24 2.015A6.005 6.005 0 0 1 14 8.01a1 1 0 1 1-2 0 3.992 3.992 0 0 0-2.633-3.758A3.998 3.998 0 0 0 4.931 5.44a1 1 0 1 1-1.53-1.285A6.011 6.011 0 0 1 8.24 2.015zM7.76 13.997a5.985 5.985 0 0 1-1.811-.355 6.008 6.008 0 0 1-3.95-5.639 1 1 0 1 1 2 0 3.995 3.995 0 0 0 2.634 3.76 3.998 3.998 0 0 0 4.435-1.187A1 1 0 1 1 12.6 11.86a6.01 6.01 0 0 1-4.84 2.136z" style="line-height:normal;font-variant-ligatures:normal;font-variant-position:normal;font-variant-caps:normal;font-variant-numeric:normal;font-variant-alternates:normal;font-feature-settings:normal;text-indent:0;text-align:start;text-decoration-line:none;text-decoration-style:solid;text-decoration-color:#000;text-transform:none;text-orientation:mixed;shape-padding:0;isolation:auto;mix-blend-mode:normal" color="#000" font-weight="400" font-family="sans-serif" white-space="normal" overflow="visible" enable-background="accumulate"/><path d="M9 10.003l4 4v-4z" fill-rule="evenodd"/></g></svg>