<?xml version="1.0" encoding="UTF-8" standalone="no"?>
<!-- Created with Inkscape (http://www.inkscape.org/) -->

<svg
   xmlns:dc="http://purl.org/dc/elements/1.1/"
   xmlns:cc="http://creativecommons.org/ns#"
   xmlns:rdf="http://www.w3.org/1999/02/22-rdf-syntax-ns#"
   xmlns:svg="http://www.w3.org/2000/svg"
   xmlns="http://www.w3.org/2000/svg"
   xmlns:sodipodi="http://sodipodi.sourceforge.net/DTD/sodipodi-0.dtd"
   xmlns:inkscape="http://www.inkscape.org/namespaces/inkscape"
   width="45"
   height="19"
   viewBox="0 0 45.000001 19.000001"
   id="svg5134"
   version="1.1"
   inkscape:version="0.91 r13725"
   sodipodi:docname="switch-active-hc.svg">
  <defs
     id="defs5136" />
  <sodipodi:namedview
     id="base"
     pagecolor="#ffffff"
     bordercolor="#666666"
     borderopacity="1.0"
     inkscape:pageopacity="0.0"
     inkscape:pageshadow="2"
     inkscape:zoom="11.313708"
     inkscape:cx="24.529056"
     inkscape:cy="-1.7879103"
     inkscape:document-units="px"
     inkscape:current-layer="layer1"
     showgrid="true"
     fit-margin-top="0"
     fit-margin-left="0"
     fit-margin-right="0"
     fit-margin-bottom="0"
     inkscape:snap-bbox="true"
     inkscape:bbox-paths="true"
     inkscape:bbox-nodes="true"
     inkscape:snap-bbox-edge-midpoints="true"
     units="px"
     showborder="true"
     inkscape:showpageshadow="false"
     inkscape:snap-bbox-midpoints="true">
    <inkscape:grid
       type="xygrid"
       id="grid5706"
       originx="-6.0000009"
       originy="-3.9999996" />
  </sodipodi:namedview>
  <metadata
     id="metadata5139">
    <rdf:RDF>
      <cc:Work
         rdf:about="">
        <dc:format>image/svg+xml</dc:format>
        <dc:type
           rdf:resource="http://purl.org/dc/dcmitype/StillImage" />
        <dc:title />
      </cc:Work>
    </rdf:RDF>
  </metadata>
  <g
     inkscape:label="Ebene 1"
     inkscape:groupmode="layer"
     id="layer1"
     transform="translate(-465.71429,-435.64792)">
    <g
       id="g4245"
       transform="translate(489.71429,438.59332)">
      <g
         style="display:inline"
         id="layer9"
         transform="translate(-60,-518)" />
      <g
         id="layer10"
         transform="translate(-60,-518)" />
      <g
         id="layer11"
         transform="translate(-60,-518)" />
      <g
         transform="matrix(0.75,0,0,0.75,2,2.0546875)"
         id="g2996">
        <g
           transform="translate(-60,-518)"
           id="layer12">
          <g
             transform="translate(19,-242)"
             id="layer4-4-1"
             style="display:inline" />
        </g>
      </g>
      <g
         id="layer13"
         transform="translate(-60,-518)" />
      <g
         id="layer14"
         transform="translate(-60,-518)" />
      <g
         id="layer15"
         transform="translate(-60,-518)" />
    </g>
    <path
       style="opacity:1;fill:#000000;fill-opacity:1;stroke:none;stroke-width:1;stroke-linecap:butt;stroke-linejoin:round;stroke-miterlimit:4;stroke-dasharray:none;stroke-dashoffset:0;stroke-opacity:1"
       d="m 10,1 c -4.9859957,0 -9,4.0140007 -9,9 0,4.985999 4.0140043,9 9,9 l 26,0 c 4.985996,0 9,-4.014001 9,-9 0,-4.9859993 -4.014004,-9 -9,-9 z m 26,1 c 4.418278,-3.4e-6 8.000001,3.5817199 8,8 10e-7,4.41828 -3.581722,8.000003 -8,8 -4.418278,3e-6 -8.000001,-3.58172 -8,-8 -1e-6,-4.4182801 3.581722,-8.0000034 8,-8 z M 13.044922,6.4648438 14.458984,7.8789062 9.7480469,12.589844 c -0.00131,0.0013 -0.00258,0.0026 -0.00391,0.0039 L 9.2675781,13.068359 8.8007812,13.535156 8.3300781,13.064453 7.3867188,12.121094 5.7382812,10.470703 c -0.2611557,-0.261156 -0.2611557,-0.6802504 0,-0.9414061 L 6.2089844,9.0566406 c 0.2611558,-0.2611557 0.6822035,-0.2611557 0.9433594,0 l 1.6484374,1.6503904 z"
       transform="translate(465.71429,435.64792)"
       id="rect4153"
       inkscape:connector-curvature="0"
       sodipodi:nodetypes="sssssssssssscccccccccccccc" />
    <g
       id="g4816"
       transform="translate(-541.34544,75.509338)"
       style="display:inline;opacity:1" />
  </g>
</svg>
