<?xml version="1.0" encoding="UTF-8" standalone="no"?>
<!-- Created with Inkscape (http://www.inkscape.org/) -->

<svg
   xmlns:dc="http://purl.org/dc/elements/1.1/"
   xmlns:cc="http://creativecommons.org/ns#"
   xmlns:rdf="http://www.w3.org/1999/02/22-rdf-syntax-ns#"
   xmlns:svg="http://www.w3.org/2000/svg"
   xmlns="http://www.w3.org/2000/svg"
   xmlns:sodipodi="http://sodipodi.sourceforge.net/DTD/sodipodi-0.dtd"
   xmlns:inkscape="http://www.inkscape.org/namespaces/inkscape"
   width="82"
   height="34"
   viewBox="0 0 82.000002 34.000002"
   id="svg5134"
   version="1.1"
   inkscape:version="0.91 r13725"
   sodipodi:docname="switch-active@2.svg">
  <defs
     id="defs5136" />
  <sodipodi:namedview
     id="base"
     pagecolor="#ffffff"
     bordercolor="#666666"
     borderopacity="1.0"
     inkscape:pageopacity="0.0"
     inkscape:pageshadow="2"
     inkscape:zoom="4"
     inkscape:cx="16.301746"
     inkscape:cy="10.072373"
     inkscape:document-units="px"
     inkscape:current-layer="layer1"
     showgrid="false"
     fit-margin-top="0"
     fit-margin-left="0"
     fit-margin-right="0"
     fit-margin-bottom="0"
     inkscape:snap-bbox="true"
     inkscape:bbox-paths="true"
     inkscape:bbox-nodes="true"
     inkscape:snap-bbox-edge-midpoints="true"
     units="px">
    <inkscape:grid
       type="xygrid"
       id="grid5706"
       originx="-6.0000009"
       originy="-3.9999996" />
  </sodipodi:namedview>
  <metadata
     id="metadata5139">
    <rdf:RDF>
      <cc:Work
         rdf:about="">
        <dc:format>image/svg+xml</dc:format>
        <dc:type
           rdf:resource="http://purl.org/dc/dcmitype/StillImage" />
        <dc:title></dc:title>
      </cc:Work>
    </rdf:RDF>
  </metadata>
  <g
     inkscape:label="Ebene 1"
     inkscape:groupmode="layer"
     id="layer1"
     transform="translate(-465.71429,-420.64792)">
    <rect
       style="display:inline;opacity:0;fill:#434343;fill-opacity:1;stroke:none;stroke-width:1;stroke-linecap:butt;stroke-linejoin:miter;stroke-miterlimit:4;stroke-dasharray:none;stroke-dashoffset:0;stroke-opacity:1"
       id="rect5465-3-3"
       width="52"
       height="24"
       x="460.71429"
       y="434.64792" />
    <path
       style="fill:#5294e2;fill-opacity:1;fill-rule:nonzero;stroke:none"
       d="m 482.71429,422.64792 c -8.864,0 -16,7.136 -16,16 0,8.864 7.136,16 16,16 l 48.00001,0 c 8.86399,0 16,-7.136 16,-16 0,-8.864 -7.13601,-16 -16,-16 l -48.00001,0 z m 48.00001,2 a 13.999997,13.999997 0 0 1 14,14 13.999997,13.999997 0 0 1 -14,14 13.999997,13.999997 0 0 1 -14,-14 13.999997,13.999997 0 0 1 14,-14 z m -39.79298,7.20703 2.82813,2.82812 -9.42578,9.42579 -0.94532,0.94531 -0.9414,0.9414 -0.9336,-0.93359 c -0.004,-0.003 -0.008,-0.004 -0.0117,-0.008 l -1.88281,-1.88673 -3.30078,-3.30078 c -0.52231,-0.52231 -0.52231,-1.3605 0,-1.88281 l 0.94141,-0.94532 c 0.52231,-0.52231 1.3644,-0.52231 1.88672,0 l 3.30078,3.30078 8.48437,-8.48437 z"
       id="rect2987-0-8"
       inkscape:connector-curvature="0" />
    <g
       id="g4816"
       transform="translate(-541.28604,76.647916)" />
  </g>
</svg>
