<?xml version="1.0" encoding="UTF-8" standalone="no"?>
<!-- Created with Inkscape (http://www.inkscape.org/) -->

<svg
   xmlns:dc="http://purl.org/dc/elements/1.1/"
   xmlns:cc="http://creativecommons.org/ns#"
   xmlns:rdf="http://www.w3.org/1999/02/22-rdf-syntax-ns#"
   xmlns:svg="http://www.w3.org/2000/svg"
   xmlns="http://www.w3.org/2000/svg"
   xmlns:sodipodi="http://sodipodi.sourceforge.net/DTD/sodipodi-0.dtd"
   xmlns:inkscape="http://www.inkscape.org/namespaces/inkscape"
   width="82"
   height="34"
   viewBox="0 0 82.000002 34.000002"
   id="svg5134"
   version="1.1"
   inkscape:version="0.91 r13725"
   sodipodi:docname="switch@2.svg">
  <defs
     id="defs5136" />
  <sodipodi:namedview
     id="base"
     pagecolor="#ffffff"
     bordercolor="#666666"
     borderopacity="1.0"
     inkscape:pageopacity="0.0"
     inkscape:pageshadow="2"
     inkscape:zoom="2"
     inkscape:cx="30.340053"
     inkscape:cy="-1.1316797"
     inkscape:document-units="px"
     inkscape:current-layer="layer1"
     showgrid="false"
     fit-margin-top="0"
     fit-margin-left="0"
     fit-margin-right="0"
     fit-margin-bottom="0"
     inkscape:snap-bbox="true"
     inkscape:bbox-paths="true"
     inkscape:bbox-nodes="true"
     inkscape:snap-bbox-edge-midpoints="true"
     units="px">
    <inkscape:grid
       type="xygrid"
       id="grid5706"
       originx="-6.0000009"
       originy="-3.9999996" />
  </sodipodi:namedview>
  <metadata
     id="metadata5139">
    <rdf:RDF>
      <cc:Work
         rdf:about="">
        <dc:format>image/svg+xml</dc:format>
        <dc:type
           rdf:resource="http://purl.org/dc/dcmitype/StillImage" />
        <dc:title></dc:title>
      </cc:Work>
    </rdf:RDF>
  </metadata>
  <g
     inkscape:label="Ebene 1"
     inkscape:groupmode="layer"
     id="layer1"
     transform="translate(-465.71429,-420.64792)">
    <rect
       style="display:inline;opacity:0;fill:#434343;fill-opacity:1;stroke:none;stroke-width:1;stroke-linecap:butt;stroke-linejoin:miter;stroke-miterlimit:4;stroke-dasharray:none;stroke-dashoffset:0;stroke-opacity:1"
       id="rect5465-3-3"
       width="52"
       height="24"
       x="460.71429"
       y="434.64792" />
    <path
       style="fill:#5b627b;fill-opacity:1;fill-rule:nonzero;stroke:none"
       d="m 482.71429,422.64792 c -8.864,0 -16,7.136 -16,16 0,8.864 7.136,16 16,16 l 48.00001,0 c 8.86399,0 16,-7.136 16,-16 0,-8.864 -7.13601,-16 -16,-16 l -48.00001,0 z m 0,2 a 13.999997,13.999997 0 0 1 14,14 13.999997,13.999997 0 0 1 -14,14 13.999997,13.999997 0 0 1 -14,-14 13.999997,13.999997 0 0 1 14,-14 z m 40.00001,8 1.5,0 c 0.0156,-1.8e-4 0.0312,-6.9e-4 0.0469,0 0.38242,0.0168 0.7648,0.19287 1.03124,0.46875 l 3.42188,3.42187 3.46875,-3.42187 c 0.39844,-0.34575 0.67001,-0.45825 1.03125,-0.46875 l 1.5,0 0,1.5 c 0,0.4297 -0.0515,0.82597 -0.375,1.125 l -3.42188,3.42187 3.375,3.375 c 0.28228,0.28226 0.42187,0.68018 0.42188,1.07813 l 0,1.5 -1.5,0 c -0.39795,-2e-5 -0.79588,-0.13964 -1.07813,-0.42188 l -3.42187,-3.42187 -3.42188,3.42187 c -0.28224,0.28229 -0.68019,0.42188 -1.07812,0.42188 l -1.5,0 0,-1.5 c -10e-6,-0.39794 0.13958,-0.79587 0.42187,-1.07813 l 3.42188,-3.375 -3.42188,-3.42187 c -0.31611,-0.29195 -0.45474,-0.70388 -0.42187,-1.125 l 0,-1.5 z"
       id="rect2987-0-8"
       inkscape:connector-curvature="0" />
    <g
       id="g4245"
       transform="translate(489.71429,438.59332)">
      <g
         style="display:inline"
         id="layer9"
         transform="translate(-60,-518)" />
      <g
         id="layer10"
         transform="translate(-60,-518)" />
      <g
         id="layer11"
         transform="translate(-60,-518)" />
      <g
         transform="matrix(0.75,0,0,0.75,2,2.0546875)"
         id="g2996">
        <g
           transform="translate(-60,-518)"
           id="layer12">
          <g
             transform="translate(19,-242)"
             id="layer4-4-1"
             style="display:inline" />
        </g>
      </g>
      <g
         id="layer13"
         transform="translate(-60,-518)" />
      <g
         id="layer14"
         transform="translate(-60,-518)" />
      <g
         id="layer15"
         transform="translate(-60,-518)" />
    </g>
  </g>
</svg>
