<?xml version="1.0" encoding="UTF-8" standalone="no"?>
<!-- Created with Inkscape (http://www.inkscape.org/) -->

<svg
   xmlns:dc="http://purl.org/dc/elements/1.1/"
   xmlns:cc="http://creativecommons.org/ns#"
   xmlns:rdf="http://www.w3.org/1999/02/22-rdf-syntax-ns#"
   xmlns:svg="http://www.w3.org/2000/svg"
   xmlns="http://www.w3.org/2000/svg"
   xmlns:sodipodi="http://sodipodi.sourceforge.net/DTD/sodipodi-0.dtd"
   xmlns:inkscape="http://www.inkscape.org/namespaces/inkscape"
   width="41"
   height="17"
   viewBox="0 0 41.000001 17.000001"
   id="svg5134"
   version="1.1"
   inkscape:version="0.91 r13725"
   sodipodi:docname="switch.svg">
  <defs
     id="defs5136" />
  <sodipodi:namedview
     id="base"
     pagecolor="#ffffff"
     bordercolor="#666666"
     borderopacity="1.0"
     inkscape:pageopacity="0.0"
     inkscape:pageshadow="2"
     inkscape:zoom="11.313708"
     inkscape:cx="13.649015"
     inkscape:cy="6.3887746"
     inkscape:document-units="px"
     inkscape:current-layer="layer1"
     showgrid="true"
     fit-margin-top="0"
     fit-margin-left="0"
     fit-margin-right="0"
     fit-margin-bottom="0"
     inkscape:snap-bbox="true"
     inkscape:bbox-paths="true"
     inkscape:bbox-nodes="true"
     inkscape:snap-bbox-edge-midpoints="true"
     units="px">
    <inkscape:grid
       type="xygrid"
       id="grid5706"
       originx="-6.0000009"
       originy="-3.9999996" />
  </sodipodi:namedview>
  <metadata
     id="metadata5139">
    <rdf:RDF>
      <cc:Work
         rdf:about="">
        <dc:format>image/svg+xml</dc:format>
        <dc:type
           rdf:resource="http://purl.org/dc/dcmitype/StillImage" />
        <dc:title></dc:title>
      </cc:Work>
    </rdf:RDF>
  </metadata>
  <g
     inkscape:label="Ebene 1"
     inkscape:groupmode="layer"
     id="layer1"
     transform="translate(-465.71429,-437.64792)">
    <rect
       style="display:inline;opacity:0;fill:#434343;fill-opacity:1;stroke:none;stroke-width:1;stroke-linecap:butt;stroke-linejoin:miter;stroke-miterlimit:4;stroke-dasharray:none;stroke-dashoffset:0;stroke-opacity:1"
       id="rect5465-3-3"
       width="52"
       height="24"
       x="460.71429"
       y="434.64792" />
    <path
       style="fill:#5b627b;fill-opacity:1;fill-rule:nonzero;stroke:none"
       d="M 9 1 C 4.5680013 1 1 4.568 1 9 C 1 13.432 4.5680013 17 9 17 L 33 17 C 37.431998 17 41 13.432 41 9 C 41 4.568 37.431998 1 33 1 L 9 1 z M 9 2 A 6.9999979 6.9999979 0 0 1 16 9 A 6.9999979 6.9999979 0 0 1 9 16 A 6.9999979 6.9999979 0 0 1 2 9 A 6.9999979 6.9999979 0 0 1 9 2 z M 29 6 L 29.75 6 C 29.757777 5.99991 29.765593 5.999655 29.773438 6 C 29.964651 6.0084 30.15584 6.096435 30.289062 6.234375 L 32 7.9453125 L 33.734375 6.234375 C 33.933594 6.0615 34.069379 6.00525 34.25 6 L 35 6 L 35 6.75 C 35 6.9648525 34.974245 7.1629875 34.8125 7.3125 L 33.101562 9.0234375 L 34.789062 10.710938 C 34.930203 10.852065 34.999994 11.051025 35 11.25 L 35 12 L 34.25 12 C 34.051024 11.999993 33.85206 11.930175 33.710938 11.789062 L 32 10.078125 L 30.289062 11.789062 C 30.14794 11.930205 29.948967 12 29.75 12 L 29 12 L 29 11.25 C 28.999998 11.051033 29.069795 10.852065 29.210938 10.710938 L 30.921875 9.0234375 L 29.210938 7.3125 C 29.052881 7.1665275 28.983568 6.9605625 29 6.75 L 29 6 z "
       transform="translate(465.71429,437.64792)"
       id="rect2987-0-8" />
    <g
       id="g4245"
       transform="translate(489.71429,438.59332)">
      <g
         style="display:inline"
         id="layer9"
         transform="translate(-60,-518)" />
      <g
         id="layer10"
         transform="translate(-60,-518)" />
      <g
         id="layer11"
         transform="translate(-60,-518)" />
      <g
         transform="matrix(0.75,0,0,0.75,2,2.0546875)"
         id="g2996">
        <g
           transform="translate(-60,-518)"
           id="layer12">
          <g
             transform="translate(19,-242)"
             id="layer4-4-1"
             style="display:inline" />
        </g>
      </g>
      <g
         id="layer13"
         transform="translate(-60,-518)" />
      <g
         id="layer14"
         transform="translate(-60,-518)" />
      <g
         id="layer15"
         transform="translate(-60,-518)" />
    </g>
  </g>
</svg>
