<?xml version="1.0" encoding="UTF-8" standalone="no"?>
<svg xmlns:rdf="http://www.w3.org/1999/02/22-rdf-syntax-ns#" xmlns="http://www.w3.org/2000/svg" height="16" width="16" version="1.1" xmlns:cc="http://creativecommons.org/ns#" xmlns:dc="http://purl.org/dc/elements/1.1/" viewBox="0 0 16 16">
 <title>Budgie symbolic icon</title>
 <metadata>
  <rdf:RDF>
   <cc:Work rdf:about="">
    <dc:format>image/svg+xml</dc:format>
    <dc:type rdf:resource="http://purl.org/dc/dcmitype/StillImage"/>
    <dc:title>Budgie symbolic icon</dc:title>
    <dc:creator>
     <cc:Agent>
      <dc:title>Yuri Henrique</dc:title>
     </cc:Agent>
    </dc:creator>
    <dc:contributor>
     <cc:Agent>
      <dc:title>HEXcube</dc:title>
     </cc:Agent>
    </dc:contributor>
    <dc:description>Symbolic icon for Budgie desktop environment</dc:description>
    <cc:license rdf:resource="http://creativecommons.org/licenses/by-sa/4.0/"/>
   </cc:Work>
  </rdf:RDF>
 </metadata>
 <path fill="#bebebe" d="m8 0a8 8 0 0 0 -8 8 8 8 0 0 0 8 8 8 8 0 0 0 8 -8 8 8 0 0 0 -8 -8m1.79 4.23c0.15 0 0.31 0.01 0.46 0.02 0.9 0.11 1.79 0.45 2.38 1.13 0.41 0.44 0.67 1.04 0.75 1.63l0.75 0.25-0.69 0.44c0.11 1.16-0.44 2.37-1.19 3.25-0.72 0.86-1.67 1.34-2.75 1.62-1.56 0.4-3.36 0.19-4.75-0.69-0.81-0.56-1.53-1.39-1.94-2.38-0.33-0.98-0.35-1.96-0.19-2.94 0.16 0.56 0.63 1.03 1.19 1.19s1.27 0.08 1.69-0.31c0.89-0.83 1.39-2.04 2.38-2.69 0.57-0.41 1.24-0.52 1.91-0.52"/>
</svg>
