<?xml version="1.0" encoding="UTF-8" standalone="no"?>
<!-- Created with Inkscape (http://www.inkscape.org/) -->

<svg
   xmlns:osb="http://www.openswatchbook.org/uri/2009/osb"
   xmlns:dc="http://purl.org/dc/elements/1.1/"
   xmlns:cc="http://creativecommons.org/ns#"
   xmlns:rdf="http://www.w3.org/1999/02/22-rdf-syntax-ns#"
   xmlns:svg="http://www.w3.org/2000/svg"
   xmlns="http://www.w3.org/2000/svg"
   xmlns:sodipodi="http://sodipodi.sourceforge.net/DTD/sodipodi-0.dtd"
   xmlns:inkscape="http://www.inkscape.org/namespaces/inkscape"
   width="4.5155554mm"
   height="4.5155554mm"
   viewBox="0 0 15.999999 15.999999"
   id="svg2"
   version="1.1"
   inkscape:version="0.91 r13725"
   sodipodi:docname="notification-alert-symbolic.svg">
  <defs
     id="defs4">
    <linearGradient
       osb:paint="solid"
       id="linearGradient5606">
      <stop
         style="stop-color:#000000;stop-opacity:1;"
         offset="0"
         id="stop5608" />
    </linearGradient>
  </defs>
  <sodipodi:namedview
     id="base"
     pagecolor="#000000"
     bordercolor="#666666"
     borderopacity="1.0"
     inkscape:pageopacity="0"
     inkscape:pageshadow="2"
     inkscape:zoom="32"
     inkscape:cx="5.6143143"
     inkscape:cy="6.2862635"
     inkscape:document-units="px"
     inkscape:current-layer="layer1"
     showgrid="false"
     fit-margin-top="0"
     fit-margin-left="0"
     fit-margin-right="0"
     fit-margin-bottom="0"
     inkscape:window-width="1920"
     inkscape:window-height="1025"
     inkscape:window-x="0"
     inkscape:window-y="27"
     inkscape:window-maximized="1"
     inkscape:snap-bbox="true"
     inkscape:bbox-nodes="true"
     inkscape:bbox-paths="true"
     inkscape:snap-bbox-edge-midpoints="true"
     showborder="false"
     inkscape:snap-global="true">
    <inkscape:grid
       type="xygrid"
       id="grid4913"
       originx="0"
       originy="-2.2107222e-05" />
  </sodipodi:namedview>
  <metadata
     id="metadata7">
    <rdf:RDF>
      <cc:Work
         rdf:about="">
        <dc:format>image/svg+xml</dc:format>
        <dc:type
           rdf:resource="http://purl.org/dc/dcmitype/StillImage" />
        <dc:title />
      </cc:Work>
    </rdf:RDF>
  </metadata>
  <g
     inkscape:label="Layer 1"
     inkscape:groupmode="layer"
     id="layer1"
     transform="translate(0,-1036.3622)">
    <path
       style="fill:#bebebe;fill-opacity:1;fill-rule:nonzero;stroke:none"
       d="M 8 0.90039062 A 1.1 1 0 0 0 6.9003906 1.9003906 A 1.1 1 0 0 0 6.9023438 1.9648438 C 6.485888 2.0531036 5.9217602 2.1971631 5.6464844 2.4492188 C 5.2375936 2.8236187 4.9083229 2.8727344 4.4101562 4.1152344 C 4.0986499 4.8923344 3.7236674 8.5996531 3.4804688 9.7519531 C 3.2759988 10.721026 3.0492478 10.948664 2.9785156 11 L 2.5 11 C 2.223 11 2 11.223 2 11.5 C 2 11.777 2.223 12 2.5 12 L 13.5 12 C 13.777 12 14 11.777 14 11.5 C 14 11.223 13.777 11 13.5 11 L 13.021484 11 C 12.950752 10.948664 12.724007 10.721026 12.519531 9.7519531 C 12.276338 8.5996531 11.901355 4.8923344 11.589844 4.1152344 C 11.091682 2.8727344 10.762407 2.8236187 10.353516 2.4492188 C 10.077698 2.1966671 9.5119297 2.0529304 9.0957031 1.9648438 A 1.1 1 0 0 0 9.0996094 1.9003906 A 1.1 1 0 0 0 8 0.90039062 z M 6.5 13 A 1.5 1 0 0 0 8 14 A 1.5 1 0 0 0 9.5 13 L 6.5 13 z "
       transform="translate(0,1036.3622)"
       id="rect2994" />
  </g>
</svg>
