<?xml version="1.0" encoding="UTF-8" standalone="no"?>
<svg
   xmlns:dc="http://purl.org/dc/elements/1.1/"
   xmlns:cc="http://creativecommons.org/ns#"
   xmlns:rdf="http://www.w3.org/1999/02/22-rdf-syntax-ns#"
   xmlns:svg="http://www.w3.org/2000/svg"
   xmlns="http://www.w3.org/2000/svg"
   width="48px"
   height="48px"
   viewBox="0 0 48 48"
   version="1.1"
   id="SVGRoot">
  <defs
     id="defs4504">
    <marker
       orient="auto"
       refY="0.0"
       refX="0.0"
       id="DiamondLstart"
       style="overflow:visible">
      <path
         id="path5191"
         d="M 0,-7.0710768 L -7.0710894,0 L 0,7.0710589 L 7.0710462,0 L 0,-7.0710768 z "
         style="fill-rule:evenodd;stroke:#000000;stroke-width:1pt;stroke-opacity:1;fill:#000000;fill-opacity:1"
         transform="scale(0.8) translate(7,0)" />
    </marker>
    <marker
       orient="auto"
       refY="0.0"
       refX="0.0"
       id="Arrow1Lstart"
       style="overflow:visible">
      <path
         id="path5103"
         d="M 0.0,0.0 L 5.0,-5.0 L -12.5,0.0 L 5.0,5.0 L 0.0,0.0 z "
         style="fill-rule:evenodd;stroke:#000000;stroke-width:1pt;stroke-opacity:1;fill:#000000;fill-opacity:1"
         transform="scale(0.8) translate(12.5,0)" />
    </marker>
  </defs>
  <metadata
     id="metadata4507">
    <rdf:RDF>
      <cc:Work
         rdf:about="">
        <dc:format>image/svg+xml</dc:format>
        <dc:type
           rdf:resource="http://purl.org/dc/dcmitype/StillImage" />
        <dc:title></dc:title>
      </cc:Work>
    </rdf:RDF>
  </metadata>
  <path
     id="rect5075"
     d="M 9.4110298,2.5488281 C 8.8822511,2.5711291 8.3667696,2.6745293 8.3306713,3.0175781 8.2463,3.8193504 10.598717,3.9822733 10.792936,3.9785156 c 4.774162,0.048308 4.293325,3.4043069 4.11968,8.1621094 -0.08328,2.281828 -0.166158,4.71458 1.210523,7.517578 -7.8359288,0.47168 -9.4802572,1.517578 -9.4802572,1.517578 v 20.800781 c 0,2.542753 2.8798209,4.587891 4.9505602,4.587891 0,0 1.254002,0.0019 1.64874,0.894531 h 22.767805 c 0.457314,-0.89266 1.646572,-0.894531 1.646572,-0.894531 2.741708,0 4.950559,-2.045138 4.950559,-4.587891 V 21.175781 c 0,0 -2.003855,-1.210257 -11.604095,-1.611328 -1.26236,-2.537596 -1.089969,-4.939806 -0.995754,-7.40625 0.194348,-5.0874041 -0.486598,-9.4881628 -6.106847,-9.5917968 -0.179718,0.038066 -2.168789,-0.2349258 -2.240986,0.4511719 -0.08437,0.8017723 2.268045,0.9646952 2.462264,0.9609375 4.774163,0.048308 4.293326,3.4043069 4.119682,8.1621094 -0.08169,2.238425 -0.167729,4.621656 1.128085,7.357422 -1.460739,-0.042 -3.041164,-0.07009 -4.829073,-0.07031 -0.10048,-1.2e-5 -0.171788,0.0038 -0.271174,0.0039 -1.190986,-2.488677 -1.018905,-4.850035 -0.926333,-7.273438 0.194348,-5.0874041 -0.486599,-9.4881628 -6.106848,-9.5917968 -0.179717,0.038066 -2.168789,-0.2349258 -2.240985,0.4511719 -0.08438,0.8017723 2.268045,0.9646952 2.462264,0.9609375 4.774162,0.048308 4.293326,3.4043069 4.119681,8.1621094 -0.08127,2.226819 -0.168339,4.596546 1.106392,7.314453 -1.868677,0.01959 -3.532,0.06193 -4.998287,0.128906 -1.273203,-2.544891 -1.10106,-4.952933 -1.006599,-7.425777 C 16.872853,7.0707989 16.191906,2.6700402 10.571657,2.5664062 10.481799,2.5854393 9.9398087,2.526527 9.4110298,2.5488281 Z M 24.475311,19.828125 a 17.576136,1.9195324 0 0 1 0.136673,0 17.576136,1.9195324 0 0 1 4.965745,0.08008 c 0.07688,0.148233 0.137955,0.292991 0.223448,0.443359 0.756363,1.328065 2.772488,2.242188 2.772488,2.242188 0,0 -0.5942,-1.295977 -1.240895,-2.390625 -0.04616,-0.07799 -0.07604,-0.154714 -0.119316,-0.232422 A 17.576136,1.9195324 0 0 1 42.188425,21.746094 17.576136,1.9195324 0 0 1 24.611984,23.666016 17.576136,1.9195324 0 0 1 7.0355423,21.746094 17.576136,1.9195324 0 0 1 16.322724,20.056641 c 0.05309,0.09919 0.09275,0.194776 0.149688,0.294921 0.756363,1.328065 2.772488,2.242188 2.772488,2.242188 0,0 -0.5942,-1.295977 -1.240895,-2.390625 -0.04505,-0.07612 -0.07484,-0.150711 -0.117147,-0.226563 a 17.576136,1.9195324 0 0 1 4.991779,-0.138671 c 0.08751,0.171275 0.159154,0.33954 0.258158,0.513671 0.756362,1.328065 2.772487,2.242188 2.772487,2.242188 0,0 -0.594199,-1.295977 -1.240895,-2.390625 -0.07451,-0.125893 -0.126014,-0.249826 -0.193076,-0.375 z"
     style="fill:#d3dae3;fill-opacity:1;stroke:none;stroke-width:2.54185963;stroke-linecap:round;stroke-linejoin:round;stroke-miterlimit:4;stroke-dasharray:none;stroke-opacity:1;paint-order:fill markers stroke" />
</svg>
