<?xml version="1.0" encoding="UTF-8" standalone="no"?>
<svg
   xmlns:dc="http://purl.org/dc/elements/1.1/"
   xmlns:cc="http://creativecommons.org/ns#"
   xmlns:rdf="http://www.w3.org/1999/02/22-rdf-syntax-ns#"
   xmlns:svg="http://www.w3.org/2000/svg"
   xmlns="http://www.w3.org/2000/svg"
   id="SVGRoot"
   version="1.1"
   viewBox="0 0 16 16"
   height="16"
   width="16">
  <defs
     id="defs4504">
    <marker
       style="overflow:visible"
       id="DiamondLstart"
       refX="0"
       refY="0"
       orient="auto">
      <path
         transform="matrix(0.8,0,0,0.8,5.6,0)"
         style="fill:#000000;fill-opacity:1;fill-rule:evenodd;stroke:#000000;stroke-width:1.00000003pt;stroke-opacity:1"
         d="M 0,-7.0710768 -7.0710894,0 0,7.0710589 7.0710462,0 Z"
         id="path5191" />
    </marker>
    <marker
       style="overflow:visible"
       id="Arrow1Lstart"
       refX="0"
       refY="0"
       orient="auto">
      <path
         transform="matrix(0.8,0,0,0.8,10,0)"
         style="fill:#000000;fill-opacity:1;fill-rule:evenodd;stroke:#000000;stroke-width:1.00000003pt;stroke-opacity:1"
         d="M 0,0 5,-5 -12.5,0 5,5 Z"
         id="path5103" />
    </marker>
  </defs>
  <metadata
     id="metadata4507">
    <rdf:RDF>
      <cc:Work
         rdf:about="">
        <dc:format>image/svg+xml</dc:format>
        <dc:type
           rdf:resource="http://purl.org/dc/dcmitype/StillImage" />
        <dc:title></dc:title>
      </cc:Work>
    </rdf:RDF>
  </metadata>
  <path
     style="fill:#000000;fill-opacity:1;stroke:none;stroke-width:0.84728652;stroke-linecap:round;stroke-linejoin:round;stroke-miterlimit:4;stroke-dasharray:none;stroke-opacity:1;paint-order:fill markers stroke"
     d="m 3.1370099,0.849609 c -0.1762595,0.0074 -0.3480867,0.0419 -0.3601195,0.15625 -0.028124,0.267258 0.7560153,0.321565 0.8207549,0.320313 1.5913874,0.0161 1.4311084,1.134769 1.3732267,2.720703 -0.02776,0.760609 -0.055386,1.571527 0.4035077,2.505859 -2.6119763,0.157227 -3.1600858,0.50586 -3.1600858,0.50586 v 6.933593 c 0,0.847585 0.9599403,1.529297 1.6501868,1.529297 0,0 0.4180006,6.34e-4 0.54958,0.298177 h 7.5892683 c 0.152438,-0.297553 0.548857,-0.298177 0.548857,-0.298177 0.913903,0 1.650187,-0.681712 1.650187,-1.529297 V 7.058594 c 0,0 -0.667952,-0.403419 -3.868032,-0.53711 C 9.9135543,5.675619 9.971018,4.874882 10.002423,4.052734 10.067203,2.356933 9.8402237,0.890013 7.9668073,0.855469 7.9069013,0.868159 7.2438777,0.777159 7.219812,1.005859 7.191689,1.273117 7.975827,1.327424 8.0405667,1.326172 c 1.5913876,0.0161 1.4311086,1.134769 1.3732273,2.720703 -0.02723,0.746142 -0.05591,1.540552 0.3760283,2.452474 -0.486913,-0.014 -1.0137213,-0.02336 -1.609691,-0.02344 -0.033493,-4e-6 -0.057263,0.0013 -0.090391,0.0013 C 7.692745,5.64765 7.7501053,4.860531 7.7809626,4.05273 7.8457456,2.356929 7.618763,0.890009 5.7453466,0.855464 5.6854406,0.868154 5.022417,0.777154 4.9983516,1.005855 4.9702246,1.273112 5.7543666,1.32742 5.8191063,1.326168 7.4104936,1.342268 7.250215,2.460937 7.1923333,4.046871 7.1652433,4.789144 7.1362203,5.579053 7.5611306,6.485022 6.9382383,6.491522 6.3837973,6.505662 5.895035,6.527992 5.470634,5.679695 5.528015,4.877015 5.559502,4.052733 5.624285,2.356932 5.3973023,0.890012 3.523886,0.855468 3.493933,0.861768 3.3132699,0.842178 3.1370102,0.849568 Z M 8.158437,6.609375 a 5.858712,0.63984413 0 0 1 0.045558,0 5.858712,0.63984413 0 0 1 1.6552483,0.02669 c 0.025627,0.04941 0.045985,0.09766 0.074483,0.147787 0.2521217,0.442688 0.9241627,0.747396 0.9241627,0.747396 0,0 -0.198066,-0.431993 -0.413631,-0.796875 -0.01539,-0.026 -0.02535,-0.05157 -0.03977,-0.07747 A 5.858712,0.63984413 0 0 1 14.062811,7.248699 5.858712,0.63984413 0 0 1 8.2039973,7.888673 5.858712,0.63984413 0 0 1 2.3451834,7.248699 5.858712,0.63984413 0 0 1 5.4409106,6.685548 c 0.017697,0.03306 0.030917,0.06493 0.049896,0.09831 0.252121,0.442688 0.9241627,0.747396 0.9241627,0.747396 0,0 -0.1980667,-0.431992 -0.4136317,-0.796875 -0.015017,-0.02537 -0.024947,-0.05024 -0.039049,-0.07552 a 5.858712,0.63984413 0 0 1 1.6639263,-0.04622 c 0.02917,0.05709 0.053051,0.11318 0.086053,0.171224 0.2521207,0.442688 0.9241623,0.747396 0.9241623,0.747396 0,0 -0.1980663,-0.431992 -0.4136316,-0.796875 -0.024837,-0.04196 -0.042005,-0.08328 -0.064359,-0.125 z"
     id="rect5075" />
</svg>
